<svg xmlns="http://www.w3.org/2000/svg" xmlns:xlink="http://www.w3.org/1999/xlink" viewBox="0 0 636.16 293.27"><defs><style>.cls-1{fill:none;}.cls-2{fill:#ffde1b;}.cls-3{fill:#8d969c;}.cls-4{fill:#fff;}.cls-5{fill:#ee3e33;}.cls-6{fill:#ec1c24;}.cls-7{fill:#004fa2;}.cls-8{clip-path:url(#clip-path);}.cls-9{fill:url(#radial-gradient);}.cls-10{fill:#0065a3;}.cls-11{fill:#231f20;}</style><clipPath id="clip-path"><path class="cls-1" d="M90.32,99.06A71.11,71.11,0,1,0,161.47,28h0A71.09,71.09,0,0,0,90.32,99.06h0"/></clipPath><radialGradient id="radial-gradient" cx="-167.21" cy="-15.49" r="1.94" gradientTransform="translate(14275.89 1378.16) scale(84.63 84.56)" gradientUnits="userSpaceOnUse"><stop offset="0" stop-color="#fff"/><stop offset="0.05" stop-color="#fff"/><stop offset="0.11" stop-color="#fffce9"/><stop offset="0.29" stop-color="#fff3ab"/><stop offset="0.47" stop-color="#ffeb78"/><stop offset="0.63" stop-color="#ffe650"/><stop offset="0.78" stop-color="#ffe133"/><stop offset="0.91" stop-color="#ffdf21"/><stop offset="1" stop-color="#ffde1b"/></radialGradient></defs><g id="Layer_2" data-name="Layer 2"><g id="Layer_1-2" data-name="Layer 1"><path class="cls-2" d="M119.82,246c-9.77-3.24-19.14-6.72-28-10.36,15.06,9.49,34.19,18,54.58,24a205.22,205.22,0,0,0,27.34,6.56c3.39.55,6.48,1,9.45,1.28l2.23.18.91.08a141.22,141.22,0,0,0,17.33.68,74.1,74.1,0,0,0,19.41-2.76l1.86-.59.3-.1.92-.31a28.85,28.85,0,0,0,4.44-2.06c-22.77,4.4-64.9-1.39-110.77-16.6"/><path class="cls-3" d="M208.71,35.57l58.3,6,22.36,83h1.28a179.64,179.64,0,0,1,2.86-20l13.65-58.81,47.34,4.91,21.55,140L334.5,193.1l-8-78.56h-.85A132.27,132.27,0,0,1,322.94,129L305.83,194.8l-28.91,1.69-21.08-64.41a117.39,117.39,0,0,1-4.11-19.71l-1.8-.06c-.15,6.3-.3,12.8-.66,19.08l-3.74,66.94-55.71,3.26ZM379.81,53.3l70.5,7.31,0,35-30.41-1.78.08,12.59,27.79,1.19,0,32.8-27.61,0,.07,12.71,31.06-.47v33.73l-69.69,4.08L379.81,53.3m166.53,63.21c-.52,18-.78,32.94-9.7,47.09-8.18,13.07-20.88,20.74-33.29,21.5A40,40,0,0,1,470.16,171c-9-10.28-14.69-25.87-14.68-45.83,0-41.06,22.16-63.73,49.27-60.85,14.16,1.51,32.57,13.31,38.12,33.08l-26.3,12.8c-2.16-5.94-6.3-9.27-11.08-9.54-10.87-.6-17.08,12.47-17.19,26.92-.09,13.12,5.68,25.3,15.48,25.13a12.52,12.52,0,0,0,12-10.18H502.49l.26-27.64Zm30.59,24.94,5.15-31.88H583c.32,4.47.64,9.07,1.23,13.51l2.27,18.31ZM572,166.31l17.86-.7,1.76,12.5,23.25-1.37-18.74-101L569.62,73,542.88,181l26.9-1.58ZM311.26,204.55,339.62,203l1.9,68.63-27.84,3.73-2.42-70.77m40.93-2.31,25.93-1.46.82,44.86,20.38-2.22.27,20.38-45.74,6.14-1.66-67.7m53-3L428.16,198l.28,42.28,18.09-2,0,19.25L406,262.94l-.76-63.69m47.15-2.66,20.4-1.15L472.55,254l-20.14,2.69,0-60.13m55.9,14.49c5.66-.46,9.05,4.18,9,10-.1,6.28-3.87,11-9.25,11.6s-9.28-3.38-9.2-9.82c.06-6,3.72-11.36,9.47-11.82m.23-18.55c-15.4.85-28.61,13.57-28.72,31.89-.12,18.54,12.72,27.83,28,25.78,14.64-2,26.31-13.78,26.64-31,.31-17-11.16-27.49-25.92-26.67m32.05-.88,15.45-.88,13.06,27.77h.45a89.81,89.81,0,0,1-.92-13L569,190l14.15-.79-1.52,50.21-14,1.87-12.79-25.51h-.45a71.77,71.77,0,0,1,.72,10.36l-.4,16.85-15.23,2Zm50.19,29,.7.64c2.41,2.21,5.32,3.88,8.46,3.52,1.33-.15,3.47-1.09,3.55-3.28s-1.69-2.18-2.91-2.38l-2.73-.36c-5.36-.67-9.84-4.35-9.59-12.15.38-11.9,9-19,17.14-19.48a16.36,16.36,0,0,1,11.41,3.57l-4,12.57c-2.18-1.87-4.69-3.27-7.59-3a3,3,0,0,0-3,2.82c-.05,1.82,1.61,1.94,2.64,2.17l3,.64c5.52,1.18,9.36,4.73,9.06,12.8-.44,11.28-8.44,17.89-16.38,19a25.5,25.5,0,0,1-14.5-2.53Zm-399.62-9.33,37.16-2.1,15.09,39.52.86-.08a73.13,73.13,0,0,1,1.81-10.29l8.83-30.65,32.46-1.83,16.37,70.74-29.26,3.92-6-39.68-.58.06a56.43,56.43,0,0,1-1.76,7.59L254.87,283.2l-19.37,2.59-14.08-30.86a41.72,41.72,0,0,1-2.73-9.47l-1.16.1c-.08,3.13-.16,6.35-.37,9.49L215,288.55l-35.27,4.72Z"/><path class="cls-4" d="M216.79,28.54l58.3,6,22.36,83h1.28a179.3,179.3,0,0,1,2.86-20l13.65-58.8,47.34,4.91,21.54,140-41.54,2.43-8-78.57h-.85A131.46,131.46,0,0,1,331,122l-17.11,65.79L285,189.5l-21.1-64.41a116.52,116.52,0,0,1-4.11-19.72H258c-.15,6.3-.3,12.8-.66,19.08l-3.75,66.94-55.72,3.27ZM387.88,46.26l70.52,7.31,0,35L428,86.76l.09,12.59,27.78,1.19,0,32.8-27.61,0,.08,12.7,31.06-.46v33.73l-69.69,4.08L387.88,46.26m166.55,63.2c-.52,18-.78,33-9.7,47.1-8.18,13.08-20.88,20.73-33.29,21.49A40,40,0,0,1,478.25,164c-9-10.28-14.7-25.87-14.69-45.83,0-41.06,22.16-63.72,49.26-60.84C527,58.82,545.4,70.63,550.94,90.4l-26.3,12.8c-2.16-6-6.29-9.27-11.07-9.54-10.87-.61-17.09,12.46-17.19,26.93-.08,13.11,5.68,25.28,15.48,25.12a12.54,12.54,0,0,0,12-10.18h-13.3l.26-27.64Zm30.57,25,5.14-31.87H591c.33,4.47.64,9.06,1.22,13.51l2.29,18.3Zm-4.9,24.87,17.86-.7,1.75,12.48L623,169.7l-18.74-101L577.7,65.93l-26.7,108,26.89-1.58Z"/><path class="cls-5" d="M219.56,25.78l58.3,6,22.37,83h1.28a177,177,0,0,1,2.86-20L318,36l47.35,4.91,21.54,140-41.54,2.43-8-78.56h-.84a134.72,134.72,0,0,1-2.72,14.48l-17.11,65.79-28.91,1.7-21.08-64.41a117.51,117.51,0,0,1-4.11-19.72l-1.8,0c-.16,6.31-.3,12.81-.66,19.09l-3.75,66.94-55.71,3.26ZM390.66,43.5l70.51,7.31v35L430.78,84l.08,12.59,27.79,1.19,0,32.8H431.07l.07,12.7,31.07-.47v33.73l-69.69,4.08L390.66,43.5m166.53,63.2c-.51,18-.78,33-9.69,47.1-8.17,13.07-20.88,20.73-33.3,21.49A40,40,0,0,1,481,161.22c-9-10.28-14.69-25.87-14.68-45.83,0-41.07,22.16-63.72,49.27-60.85,14.16,1.51,32.58,13.31,38.12,33.08l-26.31,12.8c-2.16-6-6.3-9.28-11.07-9.54-10.87-.61-17.09,12.46-17.19,26.93-.08,13.11,5.68,25.28,15.48,25.12a12.52,12.52,0,0,0,12-10.17H513.33l.26-27.65Zm30.6,24.94,5.15-31.87h.86c.33,4.47.64,9.07,1.22,13.52l2.29,18.31Zm-4.9,24.87,17.86-.7,1.76,12.49L625.75,167,607,65.92l-26.54-2.75-26.73,108,26.89-1.58Z"/><path class="cls-2" d="M.2,57.08C1.26,41.26,6.68,27.42,16.88,17.17,38.79-4.88,77.37-5,117,12.89a187.34,187.34,0,0,1,20.14,10.69l1.1.65-1.53-.54c-2,.59-4,1.27-5.93,2q-7.75-4.49-15.51-8a156.45,156.45,0,0,0-17.59-6.84c-31.18-10-59.83-7.42-77.14,10-8,8-12.76,18.4-14.64,30.32a74.62,74.62,0,0,0-.8,8c-.94,19.43,5,42.05,17.11,64.72,2.81,5.27,5.94,10.54,9.39,15.76a222.56,222.56,0,0,0,29,35.23c21,20.84,45.26,36.78,69,46A231.2,231.2,0,0,1,62,155.76c-1.57-2.32-3.07-4.66-4.53-7C36,114.08,28,78,36.24,51.24a46.76,46.76,0,0,1,1.67-4.79c1.64.38,3.32.84,5,1.37,12.78,4,26.3,12.13,38.18,23.92,2,2,3.93,4.06,5.75,6.16a60,60,0,0,0-1,6.86,103,103,0,0,0-8.35-9.36C66,64.08,53.14,56.29,41.15,52.55c-8.44,26.65.62,63.58,24,98.68,1.37,2.05,2.78,4.1,4.25,6.14a226,226,0,0,0,24.2,28.32c18.34,18.21,39.19,32.66,60,42.15a160.31,160.31,0,0,0,18,7,109.23,109.23,0,0,1-19.84-2c-31.56-6.06-65.7-25.38-94.78-54.26a218.62,218.62,0,0,1-38.74-51.43A172.49,172.49,0,0,1,7.61,103.46,128.61,128.61,0,0,1,.3,70.61,92.59,92.59,0,0,1,.2,57.08"/><path class="cls-2" d="M12.82,56.44C13.38,43.5,17.48,32.26,25.55,24,44.74,4.33,81.11,6.46,118.17,26c.73.39,1.47.73,2.2,1.14-1.66.93-28.45,11.73-33.54,40-23.9-22.22-52.47-30.34-64.54-18a18.83,18.83,0,0,0-4.7,9.19A86,86,0,0,0,21,82.71a129.76,129.76,0,0,0,7.61,20.53C21,93,16,82.46,13.86,73a43.13,43.13,0,0,1-1-10.62c0-.7-.09-1.41-.1-2.09,0-1.29.06-2.55.11-3.8"/><path class="cls-6" d="M22.33,65.87l7.48-14.46L27.17,67.47C22,99.18,37.57,140.05,69,176.8c0,0-51.24-64.28-51.24-90.19a44.57,44.57,0,0,1,4.62-20.73"/><path class="cls-2" d="M158.24,180.16a124.54,124.54,0,0,1-23-1.1,71,71,0,0,0,46,9.7,63,63,0,0,0,21.26-5.89,62,62,0,0,0,7-4l1.61-1.16.65-.48a72.4,72.4,0,0,0,25-29.18l1.1-2.42.17-.4.55-1.23a63.41,63.41,0,0,0,2.43-7.07c-14.46,24.07-45.79,41.57-82.83,43.19"/><path class="cls-6" d="M80.14,55.82a164.26,164.26,0,0,1,5.6-17.73A89.24,89.24,0,0,0,71.07,72.47a81,81,0,0,0-2,17.49c0,2.17.08,4.17.25,6.09l.17,1.44.07.58a64.1,64.1,0,0,0,2.07,11.24,43.74,43.74,0,0,0,5.74,12.75l.87,1.23.15.2.44.61a24.72,24.72,0,0,0,2.7,3c-7.82-15-8.88-42.13-1.39-71.27"/><path class="cls-4" d="M316.56,199.39l28.38-1.6,1.88,68.62L319,270.14l-2.43-70.75m40.94-2.31,25.92-1.46.83,44.86,20.37-2.23.27,20.39-45.73,6.13-1.66-67.69m53-3,22.93-1.29.27,42.27,18.1-2,0,19.25-40.58,5.44-.75-63.69m47.14-2.67,20.42-1.15-.26,58.6-20.12,2.69,0-60.14m55.91,14.49c5.66-.46,9.06,4.19,9,10-.1,6.28-3.87,11-9.25,11.59s-9.27-3.38-9.2-9.82c.06-6,3.73-11.36,9.48-11.82m.23-18.55c-15.4.85-28.62,13.57-28.72,31.9-.11,18.54,12.72,27.84,28,25.76,14.65-2,26.32-13.77,26.64-31,.32-17-11.15-27.48-25.91-26.66m32-.87,15.45-.87,13.07,27.77h.44a92.73,92.73,0,0,1-.92-13l.43-15.5,14.16-.79L587,234.25l-14,1.88-12.79-25.51h-.47a71.77,71.77,0,0,1,.72,10.36L560,237.86l-15.23,2Zm50.19,29.06.69.64c2.41,2.2,5.31,3.88,8.45,3.52,1.34-.15,3.48-1.1,3.56-3.27s-1.69-2.19-2.92-2.38l-2.71-.36c-5.37-.67-9.85-4.35-9.6-12.15.38-11.9,9-19,17.14-19.49a16.39,16.39,0,0,1,11.42,3.58l-4,12.57c-2.18-1.87-4.69-3.28-7.58-3a3,3,0,0,0-3,2.82c-.07,1.82,1.62,1.93,2.64,2.18l3,.64c5.52,1.18,9.36,4.74,9.05,12.8-.43,11.28-8.44,17.88-16.39,19a25.41,25.41,0,0,1-14.5-2.54Zm-399.62-9.33,37.15-2.1,15.09,39.52.85-.09a73.13,73.13,0,0,1,1.81-10.29l8.83-30.65,32.47-1.83L309,271.47l-29.26,3.92-6-39.68-.58,0a56.46,56.46,0,0,1-1.77,7.59L260.11,278l-19.37,2.6-14.08-30.86a42.77,42.77,0,0,1-2.73-9.47l-1.16.11c-.08,3.13-.15,6.35-.36,9.49l-2.21,33.5-35.27,4.72Z"/><path class="cls-7" d="M318.88,196.87l28.37-1.6,1.88,68.62-27.83,3.73-2.42-70.75m40.93-2.32,25.92-1.46.83,44.87,20.38-2.24.27,20.4-45.74,6.13-1.66-67.7m53-3,22.94-1.3.26,42.27,18.11-2,0,19.26-40.57,5.42-.77-63.68M460,188.9l20.4-1.15-.24,58.59L460,249.05l0-60.15m88.2-5,15.45-.87,13.06,27.77h.44a92.72,92.72,0,0,1-.91-13l.42-15.51,14.15-.8-1.52,50.21-14,1.87-12.8-25.5H562a71.77,71.77,0,0,1,.72,10.36l-.4,16.85-15.23,2ZM598.39,213l.69.64c2.42,2.21,5.32,3.88,8.47,3.52,1.33-.15,3.47-1.1,3.55-3.28s-1.69-2.18-2.92-2.37l-2.72-.36c-5.36-.68-9.84-4.35-9.6-12.15.38-11.9,8.95-19,17.14-19.48a16.4,16.4,0,0,1,11.41,3.57l-4,12.56c-2.19-1.86-4.7-3.26-7.59-3a3,3,0,0,0-3,2.82c-.06,1.82,1.61,1.93,2.63,2.17l3,.65c5.53,1.17,9.36,4.73,9,12.79-.44,11.29-8.44,17.88-16.38,19a25.45,25.45,0,0,1-14.51-2.52Zm-399.62-9.34,37.16-2.1L251,241.07l.85-.09a74.46,74.46,0,0,1,1.81-10.28l8.83-30.64L295,198.22,311.35,269l-29.26,3.92-6-39.68-.58.06a56.68,56.68,0,0,1-1.77,7.58l-11.26,34.68-19.37,2.59L229,247.24a42.47,42.47,0,0,1-2.73-9.48l-1.16.11c-.09,3.13-.16,6.35-.37,9.49l-2.2,33.49-35.27,4.73Zm317.37-18.82c-15.41.85-28.61,13.57-28.73,31.9-.11,18.55,12.73,27.83,28,25.77,14.65-2,26.32-13.78,26.64-31,.33-17-11.15-27.47-25.91-26.66"/><path class="cls-4" d="M513.94,207.73l4.42-15.1L523.3,207l12.59-1-9.71,9.37,4.34,13-11.21-6.56-13.16,12.55,5-17L496.62,209l17.32-1.26"/><g class="cls-8"><path class="cls-9" d="M90.32,28H232.55V170.12H90.32Z"/></g><path class="cls-10" d="M202.35,57.57l10.47,8.14-11.15.13-1.09,14-6.51-13.88h-14l10.06-8.63-6.71-14.43,12.17,9.46,7.79-6.75-1,12"/><path class="cls-10" d="M219.84,95.08l1.81,14.36L213.6,98.16l-11.17,5.57,6.1-12.7L200,78.94l12,5.14,5.13-10.58,1.68,13.31,9.68,4.1-8.64,4.17"/><path class="cls-10" d="M203.28,135.32l-12.25,13,4.89-19.24-12.57-10.46,15.26-.16,4.13-15.76,4.12,15.81,12.24-.07-9.43,10,4.24,15.85-10.63-9"/><path class="cls-10" d="M151.26,140.84l-21.42-8.08,24.44-6.48,4.31-21.15,8.26,17.8,17.61-4.49-12.74,15.37,8.14,17.81-17.17-6.47L146,165.5l5.25-24.66"/><path class="cls-10" d="M123.78,83.27l1.27-20.84L138.93,80l20.37-4.4L147,90.25l12.36,16-21.11-5.86L121.55,120,123,96.48,95.71,89.11l28.07-5.84"/><path class="cls-10" d="M162.06,44.89,176.21,41l-6.05,12.46L182.3,66.17l-16.16-4.38-7.42,14.87L155,58.6l-21.27-5.88,18.7-5.16-3.6-16.79,13.28,14.12"/><path class="cls-11" d="M632,234h-1.4l-1.15-3h-1.88v3h-1.33v-7.38h3.21a2.77,2.77,0,0,1,2,.6,2.09,2.09,0,0,1,.62,1.57,2,2,0,0,1-1.32,2Zm-4.42-4.1h1.66a1.74,1.74,0,0,0,1.08-.3,1.13,1.13,0,0,0,.35-.84,1,1,0,0,0-.35-.79,1.45,1.45,0,0,0-1-.3h-1.77Z"/><path class="cls-11" d="M629,237.53a7.15,7.15,0,1,1,7.16-7.15,7.15,7.15,0,0,1-7.16,7.15m0-13.47a6.32,6.32,0,1,0,6.32,6.32,6.32,6.32,0,0,0-6.32-6.32"/></g></g></svg>